<?xml version="1.0" encoding="UTF-8"?>
<svg version="1.1" viewBox="0 0 297 210" xmlns="http://www.w3.org/2000/svg">
<path d="m276.11 169.88h-255.23v2.012h255.23z"/>
<g transform="translate(.071)">
<path d="m63.01 68.978 0.1137 0.2831 0.0142 0.2674 0.1137 0.1573 0.2417 0.2359 0.27 0.1416 0.3696 0.2202 0.27 0.173 0.2275 0.0472 0.2842 0.0944 0.3696 0.0629 0.4122 0.0157 0.6396 0.0315 0.597-0.0315 0.4406 0.0157 0.1422-0.0472 0.3553-0.0629 0.6681-0.1573 0.8244-0.2674 2.0325-0.6449 0.8102-0.2752 1.1513-0.4483 0.796-0.3224 4.4631-1.7223 1.3645-0.4798 0.4335-0.1337 0.3909-0.1022 0.2772-0.0629 0.1919-0.0314 0.3695-0.0237 0.2203-0.0392 0.2488-0.0315 0.1848 0.0157 0.2842 0.0314 0.0853 0.0629 0.4549 0.0078 0.0069 0.0629h0.1564l0.4193 0.0236 0.4619 0.0944 0.4762 0.1337 0.3838 0.1337 0.2771 0.1259 0.4904 0.2437 0.4691 0.2989 0.2771 0.2123 0.4407 0.3854 0.2274 0.2359 0.2629 0.3225 0.2701 0.3539 0.3056 0.4246 0.1919 0.2517 0.4122 0.409 0.2274 0.2202 0.2843 0.2673 0.2274 0.3304-0.3411-0.1416-0.4122-0.2359-0.4407-0.0629-0.0568-0.0787-0.2274-0.0944-0.4833-0.0629-0.4833-0.0786-0.668 0.0472-0.4975 0.0157-0.7675 0.173-0.6681 0.1101-0.4264 0.0943-0.5685 0.2045-0.3838 0.173-0.4406 0.2517-0.199 0.2202-0.2132 0.5033-0.128 0.5034-0.0995 0.3932-0.1137 0.5348-0.398 1.5257-0.2842 0.692-0.3269 0.8179-0.2275 0.6606-0.2274 0.4562-0.3127 0.5505-0.2274 0.3618-0.5117 0.8179-0.4833 0.5977-0.27 0.2674-0.2559 0.2831-0.4406 0.519-0.0853 0.2517-0.27 0.2674-0.2133 0.5033-0.1989 0.3932-0.3412 0.9438-0.1137 0.3617-0.1279 0.236-0.2843 0.3303-0.3695 0.346-0.3696 0.2359-0.3838 0.2989-0.2985 0.173-0.5543 0.3303-0.3411 0.2202-0.2274 0.1573-0.4975 0.4404-0.3127 0.3932-0.3127 0.4562-0.1848 0.2988-0.2701 0.5662-0.1421 0.5191-0.0853 0.5977-0.0142 0.5977-0.0427 0.582v0.6763l-0.0142 0.8808 0.0284 0.5034-0.0284 0.2831-0.0143 0.2359-0.1279 0.1888-0.0711 0.173-0.0853 0.173-0.5117 0.4247-0.9097 0.0472-0.1137 0.1573-0.6822 0.2831-0.327 0.3932-0.469 0.4719-0.4691 0.0314v0.6606l0.2701 0.3933v0.0786l0.4264 0.582 0.0568 0.3775 0.1564 0.4247-0.1421 0.7078 0.867 3.3971-4.989-0.015-1.8336 0.015-0.2701-1.6198-0.6254-1.274 0.0284-0.4719-0.8954-0.8179 0.1563-0.2359 0.5259-0.0944-0.0568-0.7392-0.1137-0.1259-0.199-0.4561-0.0569-0.1573-1.8335 0.2674-1.6915-0.173-2.3452-0.3618-1.7625-0.3775-2.7149-1.0695-1.9473-1.337-0.1421 0.4561-0.1848 0.0158-0.3411 0.7707-0.1421 0.0472-0.2701 0.4876-0.2132 0.1101-0.0995 0.236-0.2558 0.0786-0.9666 1.6516 0.0142 0.7078 0.8244-0.1573 0.0711 0.2044-0.5543 0.8494-0.5686 0.5505 0.1848 0.0157-0.4122 1.0696-0.2132 0.1101-0.0284 0.9909h-7.249l0.0711-1.7145 0.1421-0.8336 0.3553-1.0067 0.6112-0.8178-0.0426-0.2674 0.3127-2.9728 0.3695-0.0629 0.7534 1.1482 0.3837-0.346-0.0284-0.0944 0.4122-0.3146 0.1564-0.3146-0.0142-0.3618 0.2842-0.346 0.0427-0.3932-0.1137-0.0944 0.0852-0.582-0.1421-0.2831 0.2132-1.0224-0.1137-0.2044 0.2274-0.7236-0.0142-0.5662 0.1422-0.5033-0.0427-0.2989 0.4122-0.8179-0.0853-0.6763-0.7675-1.5886-0.5117-1.4628-0.5828-2.0762-0.3553-2.2335-0.2132-1.7931 0.5259-8.7296 0.597-3.8378 1.933-6.2444-0.1137-1.0538-0.0852-0.5033 0.1137 0.0943-0.327-0.8021 0.1848-0.1101-0.3695-1.0696-0.1137-0.6292-0.1138-1.447h0.0711l0.2132-1.2583 0.3127-1.2426-0.0426-0.9909-0.0284-0.5348-0.3127-0.5662 0.1421-0.1573 0.1279-0.8966 0.1137-0.1415 0.0711-0.5191 0.1279-0.173 0.0142-0.2045-0.4832-1.6201 0.1279-0.0156-0.0427-1.7145 0.2417 0.1101 0.5685-1.51 0.0711-0.6606 0.1421-0.346 0.199 0.0314 0.0711-0.692 0.1706-0.236 0.1279-0.0629 0.2701-0.6134 0.0995-0.1258 0.0995 0.1258 0.3269-0.6291v-1.5257l0.2132-0.1259-0.4264-0.755-0.8529 0.3146h-0.1421l-1.4782 0.7707-0.1422 0.2517-0.2985 0.1573-0.9239 0.3932-0.2132-0.0157-0.3695 0.2674-0.2274 0.0787-0.5402-0.4247-0.6822 0.4719-0.9808 1.447-0.2985 1.6201 0.0285 1.0381-0.1422 0.4404-0.4975 0.5348-0.3979 0.1258-0.796 0.2045-0.8529-0.1573-0.4832-0.6763-0.1706-0.5506v-0.8179l0.0142-0.4246 0.1564-0.5505 0.3695-0.6921 0.6965-0.5977 0.5543-0.4562 0.8955-0.4718 1.0803-0.5348 1.1371-0.5348-0.0427-0.7392 0.3411-0.2202 0.9808-0.409 0.2701-0.1887 0.3695-0.1416 0.2701-0.1101 0.1421 0.0158 0.6254-0.2674 0.4406-0.1416 0.398-0.1573-0.0142-0.0943 0.7107-0.2674 0.4264-0.1888h0.2985l-0.0853-0.2202-0.071-0.519 0.1137-0.1573 0.3979-0.1888 0.1848-0.0472 0.0711 0.1573-0.0142-0.3775 0.1848-0.2202 0.3695-0.2988 0.2417-0.0787 0.0568 0.0944-0.0284-0.1573 0.1848-0.2517 0.3127-0.173 0.3269-0.0629 0.1421 0.0315 0.1848-0.409 0.3127-0.2988 0.4122-0.1259 0.3553 0.0787 0.2985 0.2202 0.2559 0.519 0.3269-0.0629 0.3411 0.1573 0.995-0.4718-1.2224-1.8246-0.0568-0.346 0.7106-2.9571 3.7809-1.0066 1.194 1.5729 1.2508 1.9504 1.2792 1.856 0.7391 1.2898 0.2559 0.8493-0.0853 0.6921-0.8244 1.8875-2.928 1.4155-0.1706-0.1572-0.5686 0.0314-2.4732-3.712-0.9096 0.5033-0.0285 0.409-0.3979 0.9437-0.0853 0.5348-0.2559 1.1639-0.4264 0.8808 0.1706 0.2202-0.3127 0.5034-0.1422 1.0381-0.1989 0.2202 0.0284 0.8493 0.1137 0.8809v1.3212l0.3127 0.1573 0.1706 1.2897-0.1422 1.0067-0.2843 1.0381-0.2842 0.5662-0.1422 0.3775-0.0568 0.8179 0.199 0.5348 0.3127 0.6606 0.1421-0.0314-0.0568 0.5977 0.3127 0.1258v0.5033l0.1421 0.0629 0.1137 0.3461 0.5401 0.1887 0.5686 0.6292-0.0284-0.409 0.2274-0.1887 0.2274 0.0314-0.0284-0.4718h0.2274l0.5685-0.7865c0.31-0.3497 0.6661-0.6722 1.5351-0.6921 1.2449 0.0682 1.1043 0.1364 1.3219 0.2045 0.7816 0.5261 0.9571 1.164 1.4356 1.7459 0.3735 0.1512 0.4653-0.0094 0.6254-0.0944l1.5067-2.3278c0.2515-0.2988 0.1162-0.1158 0.0852-0.0629l-0.0852 0.5033-0.1706 0.3775 0.199-0.1573c-0.0664 0.7131 0.4863 0.4671-0.199 2.1391l0.1421 0.1259c0.1482-0.2345 3e-4 0.1043 0 0.1572 0.1648 0.0264-0.1257 0.1248-0.199 0.1888 0.111 0.2094 0.0144 0.235-0.0568 0.2831-0.0047 0.31-0.2936 0.3584-0.5117 0.4719 0.1923 0.0579 0.6407 0.0402 0.3127 0.2516l-0.2843 0.2517c0.1575 0.0572 0.3608 0.0701 0.2275 0.409-0.0947 0.1047-0.1394 0.0986-0.199 0.1258 0.2463 0.3251 0.0538 0.7889 0.7391 0.9752l1.1655 0.4404 1.2224 0.4757c0.397 0.1951 0.8846 0.3235 1.1371 0.6253 0.128 0.1835 0.209 0.4189 0.3127 0.6292 0.0783 0.1021 0.1539 0.2071 0.2843 0.2516 0.3155 0.1248 0.7712 0.1462 0.9398 0.3794 0.0432 0.1399 0.0746 0.2741-0.485 0.124-0.0913 0.1964-0.1317 0.1955-0.1706 0.1887-0.1232-0.0315-0.0743 5e-4 -0.3695-0.0944-0.0668 0.0069-0.1518 0.021-0.1422 0-0.2099-0.0437-0.2905-0.116-0.3695-0.1887-0.6358 0.122-0.8309 0.049-1.0803 0-0.1438 0.0586-0.3502 0.1518-0.3979 0.1573l-1.8194-0.1888-0.3127 0.1573c0.2506 0.0268 0.5152 0.0051 0.6538 0.1888 0.3144-0.0405-0.7919-0.0764 1.1371-0.0315l0.7676 0.3146-0.9666 0.755 0.4264 0.0944 0.4265 0.6606 0.4832 0.3775 0.0853 0.2516 0.2843 0.4404 0.199 0.6292 0.0568 0.4404 0.1706 0.4719-0.1422 0.6291 0.2843 0.1888-0.0853 0.1572 0.597 0.5034 0.0569 0.2202 0.3127 0.4718 0.1421 0.2832-0.1137 0.0314 0.398 0.7865v0.1258h-0.1137l0.2842 0.8179-0.199 0.1258 0.1422 0.8494-0.1422 0.3145-0.0568 0.9438-0.1137 0.0629z"/>
<path d="m19 136.21v0.496h18.068c0-1.926 0.327-3.604 0.981-5.034 0.7085-1.485 1.4443-3.026 2.2074-4.621 0.0545-0.33 0.1635-0.495 0.327-0.495h25.098c0.109 0 0.2453 0.165 0.4088 0.495 0 0.11 0.0545 0.33 0.1635 0.66 0.1635 0.275 0.327 0.605 0.4905 0.99s0.327 0.743 0.4906 1.073c0.1635 0.33 0.2997 0.55 0.4087 0.66 0.2725 0.605 0.5723 1.486 0.8993 2.641 0.3815 1.155 0.5723 2.365 0.5723 3.631h18.068v-0.496l-0.1636-0.165c-0.327-0.44-0.763-1.072-1.308-1.897-0.545-0.826-0.9538-1.596-1.2263-2.311l-19.376-45.302v-2.8057h-23.545v2.3931l-19.048 44.312c-0.436 0.935-0.981 1.953-1.6351 3.053-0.5995 1.046-1.2263 1.953-1.8803 2.723zm27.551-23.765 6.622-15.513 6.7038 15.513z"/>
<path d="m91.057 127.87v8.397h33.051v-4.227c0-1.953-0.093-3.85-0.279-5.691-0.186-1.879-0.744-3.682-1.675-5.41-0.223-0.601-0.595-1.165-1.116-1.691-0.484-0.563-1.061-1.033-1.731-1.408-0.67-0.414-1.396-0.733-2.177-0.958-0.745-0.226-1.508-0.338-2.289-0.338h-11.222c-0.447 0-0.894-0.245-1.34-0.733-0.447-0.488-0.67-1.39-0.67-2.705v-0.451h17.81c0.26 0 0.614 0.132 1.06 0.395 0.484 0.225 0.819 0.375 1.005 0.45v-8.678h-30.427v9.806c0 1.277 0.2978 2.517 0.8933 3.719s1.3399 2.273 2.2332 3.212c0.9305 0.901 1.9354 1.634 3.0148 2.198 1.0794 0.563 2.0843 0.845 3.0147 0.845h10.999c0.074 0 0.186 0.056 0.335 0.169 0.148 0.075 0.26 0.15 0.335 0.225 0.335 0.376 0.595 0.695 0.781 0.958 0.223 0.226 0.391 0.47 0.503 0.733 0.111 0.263 0.186 0.563 0.223 0.902 0.037 0.3 0.056 0.695 0.056 1.183h-19.652c-0.4466 0-0.9305-0.132-1.4516-0.395-0.521-0.263-0.9491-0.432-1.2841-0.507z"/>
<path d="m148.74 123.31c-0.075-0.601-0.168-1.202-0.279-1.803-0.075-0.602-0.205-1.221-0.391-1.86h11.445c-0.186 0.714-0.354 1.334-0.502 1.86-0.149 0.525-0.224 1.108-0.224 1.746v13.018h-20.992c-1.489 0-2.866-0.545-4.131-1.634-1.266-1.09-2.364-2.424-3.294-4.001-0.893-1.616-1.601-3.344-2.122-5.185s-0.781-3.531-0.781-5.072c0-1.728 0.26-3.512 0.781-5.353 0.559-1.841 1.303-3.513 2.234-5.015 0.967-1.503 2.102-2.743 3.405-3.72 1.34-0.976 2.792-1.465 4.355-1.465h20.545v8.171h-0.223c-0.075 0-0.298-0.037-0.67-0.112-0.372-0.113-0.596-0.207-0.67-0.282h-15.353c-0.782 0-1.489 0.244-2.122 0.732-0.595 0.489-1.116 1.127-1.563 1.916-0.409 0.752-0.744 1.597-1.005 2.536-0.223 0.902-0.335 1.766-0.335 2.592 0 0.902 0.112 1.841 0.335 2.818 0.261 0.977 0.614 1.878 1.061 2.705 0.447 0.826 0.986 1.503 1.619 2.029 0.67 0.526 1.433 0.789 2.289 0.789h6.588z"/>
<path d="m162.42 135.99v0.282h10.719c0-1.127 0.186-2.123 0.558-2.987 0.41-0.864 0.838-1.784 1.285-2.761 0.074-0.188 0.148-0.282 0.223-0.282h14.906c0.261 0.526 0.484 0.996 0.67 1.409 0.224 0.413 0.41 0.845 0.559 1.296 0.186 0.451 0.335 0.939 0.446 1.465 0.149 0.526 0.279 1.146 0.391 1.86h10.719v-0.282l-0.111-0.113c-0.186-0.3-0.447-0.676-0.782-1.127-0.335-0.488-0.577-0.939-0.726-1.352l-11.556-26.937v-1.634h-13.902v1.409l-11.333 26.317c-0.261 0.563-0.596 1.164-1.005 1.803-0.373 0.601-0.726 1.146-1.061 1.634zm16.358-14.144 3.908-9.186 3.964 9.186z"/>
<path d="m206.48 133.45c-0.074 0.526-0.149 1.033-0.223 1.522-0.038 0.45-0.149 0.883-0.335 1.296h10.831c-0.075-0.301-0.149-0.658-0.224-1.071-0.074-0.451-0.148-0.958-0.223-1.521v-5.805h5.918l6.755 8.397h13.009c0-0.075-0.037-0.132-0.112-0.169-0.037-0.075-0.056-0.113-0.056-0.113-1.898-1.916-3.61-3.87-5.136-5.861-1.526-2.028-3.145-4.113-4.857-6.255 0.67-0.15 1.34-0.563 2.01-1.239 0.707-0.677 1.34-1.484 1.898-2.424 0.595-0.939 1.079-1.953 1.451-3.043 0.373-1.089 0.559-2.122 0.559-3.099v-9.242h-31.991c0.149 0.564 0.298 1.127 0.447 1.691 0.186 0.563 0.279 1.164 0.279 1.803zm9.826-20.794h10.999c0 1.653-0.298 2.949-0.894 3.889-0.558 0.901-1.284 1.596-2.177 2.085-0.893 0.45-1.88 0.732-2.959 0.845-1.042 0.113-2.029 0.169-2.959 0.169h-2.01z"/>
<path d="m244.36 104.82c0.037 0.414 0.093 0.77 0.168 1.071 0.074 0.301 0.149 0.62 0.223 0.958 0.075 0.3 0.149 0.657 0.223 1.071 0.075 0.413 0.112 0.92 0.112 1.521v23.95c0 0.601-0.112 1.127-0.335 1.578-0.186 0.413-0.316 0.845-0.391 1.296h23.114c1.451 0 2.81-0.545 4.075-1.634 1.266-1.09 2.364-2.424 3.294-4.001 0.931-1.616 1.657-3.344 2.178-5.185 0.558-1.841 0.837-3.531 0.837-5.072 0-1.728-0.279-3.512-0.837-5.353-0.521-1.841-1.266-3.513-2.234-5.015-0.93-1.503-2.065-2.743-3.405-3.72-1.34-0.976-2.792-1.465-4.355-1.465zm10.552 7.777h8.486c0.782 0 1.489 0.244 2.122 0.732 0.632 0.489 1.154 1.127 1.563 1.916 0.447 0.752 0.782 1.597 1.005 2.536 0.223 0.902 0.335 1.766 0.335 2.592 0 0.902-0.13 1.86-0.391 2.874-0.223 0.977-0.558 1.879-1.005 2.705-0.447 0.789-1.005 1.465-1.675 2.029-0.632 0.526-1.358 0.789-2.177 0.789h-8.263z"/>
</g>
<g transform="translate(-2.1761)">
<path d="m40.69 157.82c-0.2042 0.368-0.4303 0.677-0.6783 0.927h-15.798c-0.1021-0.235-0.1386-0.545-0.1094-0.927zm-1.0284 1.258c-0.5689 0.472-1.2764 0.803-2.1224 0.994h-11.597c-0.7585-0.206-1.2764-0.537-1.5535-0.994zm-12.932-9.496c0.1167-0.133 0.2918-0.295 0.5252-0.486h15.229c0.1022 0.147 0.1751 0.309 0.2189 0.486zm-0.6126 0.993c0-0.029 0.0291-0.103 0.0875-0.22h16.586c0.0292 0.029 0.0292 0.066 0 0.11s-0.0292 0.081 0 0.11l-0.0875 0.31h-4.0699c-0.248-0.206-0.6272-0.31-1.1378-0.31h-6.0829c-0.5105 0-0.9554 0.104-1.3347 0.31h-4.048zm2.6038-2.296c0.248-0.089 0.5032-0.162 0.7658-0.221 0.2772-0.074 0.5762-0.133 0.8971-0.177h9.6714c0.2771 0.044 0.5324 0.103 0.7658 0.177 0.248 0.059 0.4595 0.132 0.6345 0.221zm7.702 9.165c0.4668-0.132 0.8315-0.42 1.0941-0.861h3.5666l-0.2626 0.861zm-8.4679-0.861c0 0.441 0.197 0.729 0.5908 0.861h-4.398l0.2625-0.861zm0.0876-0.508-0.0219 0.066h-3.501l0.2407-0.817h3.501zm-3.129-1.259 0.1969-0.729h3.501l-0.197 0.729zm0.3501-1.303 0.1969-0.685h3.501l-0.197 0.685zm13.544-1.303 0.0218-0.044c0.0584-0.177 0.0876-0.368 0.0876-0.575h3.5665l-0.175 0.619zm-9.4307-0.619c-0.0438 0.089-0.0875 0.184-0.1313 0.288-0.0292 0.088-0.0583 0.184-0.0875 0.287l-0.0219 0.044h-3.5009l0.175-0.619zm8.3147 4.55 0.0219-0.066 0.1313-0.464h3.5009l-0.1531 0.53z"/>
<path d="m59.515 157.82c-0.2043 0.368-0.4304 0.677-0.6783 0.927h-15.798c-0.1021-0.235-0.1386-0.545-0.1094-0.927zm-1.0284 1.258c-0.5689 0.472-1.2764 0.803-2.1225 0.994h-11.597c-0.7586-0.206-1.2764-0.537-1.5536-0.994zm-12.932-9.496c0.1167-0.133 0.2917-0.295 0.5251-0.486h15.229c0.1021 0.147 0.175 0.309 0.2188 0.486zm-0.6127 0.993c0-0.029 0.0292-0.103 0.0875-0.22h16.586c0.0292 0.029 0.0292 0.066 0 0.11-0.0291 0.044-0.0291 0.081 0 0.11l-0.0875 0.31h-4.0698c-0.248-0.206-0.6273-0.31-1.1378-0.31h-6.0829c-0.5106 0-0.9555 0.104-1.3348 0.31h-4.0479zm2.6038-2.296c0.248-0.089 0.5033-0.162 0.7659-0.221 0.2771-0.074 0.5761-0.133 0.8971-0.177h9.6713c0.2772 0.044 0.5325 0.103 0.7658 0.177 0.248 0.059 0.4595 0.132 0.6346 0.221zm7.7021 9.165c0.4668-0.132 0.8315-0.42 1.094-0.861h3.5666l-0.2626 0.861zm-8.4679-0.861c0 0.441 0.1969 0.729 0.5908 0.861h-4.3981l0.2626-0.861zm0.0875-0.508-0.0219 0.066h-3.5009l0.2407-0.817h3.5009zm9.6495 0.066 0.0219-0.066 0.2188-0.751h3.5009l-0.2407 0.817zm-12.778-1.325 0.197-0.729h3.5009l-0.1969 0.729zm13.172 0 0.197-0.729h3.5009l-0.1969 0.729zm-12.822-1.303 0.197-0.685h3.5009l-0.1969 0.685zm13.172 0 0.197-0.685h3.5009l-0.1969 0.685zm-9.0587-1.922c-0.0437 0.089-0.0875 0.184-0.1312 0.288-0.0292 0.088-0.0584 0.184-0.0876 0.287l-0.0218 0.044h-3.501l0.1751-0.619zm9.4307 0.619 0.0219-0.044c0.0583-0.177 0.0875-0.368 0.0875-0.575h3.5666l-0.1751 0.619z"/>
<path d="m61.054 160.08 0.2845-0.994h13.216l-0.9846 0.994zm0.372-1.325 0.2844-0.927h14.091l-0.919 0.927zm0.372-1.303 0.2625-0.861h3.501l-0.2626 0.861zm0.3719-1.303 0.2407-0.817h3.501l-0.2407 0.817zm0.3939-1.325 0.1969-0.729h3.501l-0.197 0.729zm0.3501-1.303 0.1969-0.685h3.501l-0.197 0.685zm0.372-1.303 0.175-0.619h3.501l-0.1751 0.619zm0.3938-1.325 0.1313-0.53h3.5009l-0.1312 0.53zm0.3501-1.303 0.1532-0.486h3.5009l-0.1531 0.486zm4.0042-1.701-0.1313 0.398h-3.5009l0.1313-0.398z"/>
<path d="m76.931 160.08 0.2844-0.994h14.266l-0.9847 0.994zm0.3719-1.325 0.2845-0.927h15.163l-0.9408 0.927zm1.1379-3.931 0.1969-0.729h3.5009l-0.1094 0.376 0.372-0.376h10.612l-0.7002 0.729zm1.466-5.234 0.1531-0.486h15.338l-0.1531 0.486zm3.0414 3.931 0.7002-0.685h10.612l-0.6783 0.685zm-2.6695-5.234 0.1313-0.398h15.338l-0.1313 0.398zm14.704 2.296h-11.838l-0.0875 0.31h-3.5009l0.1313-0.53h15.338zm-3.3259 4.881h-9.912l-0.197 0.685h-3.5009l0.2407-0.817h13.5zm-13.982 1.988 0.2626-0.861h3.5009l-0.2625 0.861zm1.1159-3.931 0.197-0.685h3.5009l-0.1969 0.685zm0.372-1.303 0.1751-0.619h3.5009l-0.175 0.619z"/>
<path d="m111.59 157.82c-0.204 0.368-0.431 0.677-0.679 0.927h-15.798c-0.1021-0.235-0.1386-0.545-0.1094-0.927zm-1.029 1.258c-0.569 0.472-1.276 0.803-2.122 0.994h-11.597c-0.7586-0.206-1.2764-0.537-1.5536-0.994zm-12.931-9.496c0.1167-0.133 0.2917-0.295 0.5251-0.486h15.229c0.102 0.147 0.175 0.309 0.219 0.486zm-0.6127 0.993c0-0.029 0.0292-0.103 0.0875-0.22h16.585c0.03 0.029 0.03 0.066 0 0.11-0.029 0.044-0.029 0.081 0 0.11l-0.087 0.31h-4.07c-0.248-0.206-0.627-0.31-1.138-0.31h-6.083c-0.51 0-0.955 0.104-1.334 0.31h-4.0484zm2.6038-2.296c0.248-0.089 0.5031-0.162 0.7661-0.221 0.277-0.074 0.576-0.133 0.897-0.177h9.671c0.277 0.044 0.533 0.103 0.766 0.177 0.248 0.059 0.46 0.132 0.635 0.221zm7.7021 9.165c0.467-0.132 0.831-0.42 1.094-0.861h3.567l-0.263 0.861zm-8.4679-0.861c0 0.441 0.1969 0.729 0.5908 0.861h-4.3981l0.2626-0.861zm0.0875-0.508-0.0218 0.066h-3.501l0.2407-0.817h3.5009zm-3.1289-1.259 0.1969-0.729h3.5009l-0.1969 0.729zm0.3501-1.303 0.1969-0.685h3.5009l-0.1969 0.685zm13.544-1.303 0.022-0.044c0.058-0.177 0.087-0.368 0.087-0.575h3.567l-0.175 0.619zm-9.431-0.619c-0.043 0.089-0.087 0.184-0.131 0.288-0.029 0.088-0.058 0.184-0.087 0.287l-0.022 0.044h-3.5013l0.1751-0.619zm8.315 4.55 0.022-0.066 0.131-0.464h3.501l-0.153 0.53z"/>
<path d="m130.41 157.82c-0.204 0.368-0.43 0.677-0.678 0.927h-15.798c-0.102-0.235-0.139-0.545-0.11-0.927zm-1.028 1.258c-0.569 0.472-1.277 0.803-2.123 0.994h-11.597c-0.758-0.206-1.276-0.537-1.553-0.994zm-12.932-9.496c0.117-0.133 0.292-0.295 0.525-0.486h15.229c0.102 0.147 0.175 0.309 0.219 0.486zm-0.613 0.993c0-0.029 0.03-0.103 0.088-0.22h16.586c0.029 0.029 0.029 0.066 0 0.11-0.03 0.044-0.03 0.081 0 0.11l-0.088 0.31h-4.07c-0.248-0.206-0.627-0.31-1.138-0.31h-6.082c-0.511 0-0.956 0.104-1.335 0.31h-4.048zm2.604-2.296c0.248-0.089 0.503-0.162 0.766-0.221 0.277-0.074 0.576-0.133 0.897-0.177h9.671c0.278 0.044 0.533 0.103 0.766 0.177 0.248 0.059 0.46 0.132 0.635 0.221zm7.702 9.165c0.467-0.132 0.832-0.42 1.094-0.861h3.567l-0.263 0.861zm-8.468-0.861c0 0.441 0.197 0.729 0.591 0.861h-4.398l0.263-0.861zm0.088-0.508-0.022 0.066h-3.501l0.241-0.817h3.501zm-3.129-1.259 0.197-0.729h3.501l-0.197 0.729zm0.35-1.303 0.197-0.685h3.501l-0.197 0.685zm13.544-1.303 0.022-0.044c0.059-0.177 0.088-0.368 0.088-0.575h3.566l-0.175 0.619zm-9.43-0.619c-0.044 0.089-0.088 0.184-0.132 0.288-0.029 0.088-0.058 0.184-0.087 0.287l-0.022 0.044h-3.501l0.175-0.619zm8.314 4.55 0.022-0.066 0.132-0.464h3.5l-0.153 0.53z"/>
<path d="m131.52 160.08 0.984-0.994h13.698l-0.985 0.994zm1.313-1.325 0.919-0.927h13.719l-0.941 0.927zm2.231-9.165 0.504-0.486h13.697l-0.481 0.486zm1.291-1.303 0.416-0.398h13.719l-0.415 0.398zm-2.231 2.296 0.197-0.22h13.697l-0.197 0.22h-4.157l-0.088 0.31h-3.501l0.088-0.31zm4.069 6.869 0.263-0.861h3.501l-0.263 0.861zm0.372-1.303 0.241-0.817h3.501l-0.241 0.817zm0.394-1.325 0.197-0.729h3.501l-0.197 0.729zm0.35-1.303 0.197-0.685h3.501l-0.197 0.685zm0.372-1.303 0.175-0.619h3.501l-0.175 0.619z"/>
<path d="m165.88 157.82c-0.204 0.368-0.43 0.677-0.678 0.927h-15.798c-0.102-0.235-0.139-0.545-0.11-0.927zm-1.028 1.258c-0.569 0.472-1.277 0.803-2.123 0.994h-11.597c-0.758-0.206-1.276-0.537-1.553-0.994zm-12.932-9.496c0.117-0.133 0.292-0.295 0.525-0.486h15.229c0.102 0.147 0.175 0.309 0.219 0.486zm-0.613 0.993c0-0.029 0.029-0.103 0.088-0.22h16.586c0.029 0.029 0.029 0.066 0 0.11-0.03 0.044-0.03 0.081 0 0.11l-0.088 0.31h-4.07c-0.248-0.206-0.627-0.31-1.138-0.31h-6.083c-0.51 0-0.955 0.104-1.334 0.31h-4.048zm2.604-2.296c0.248-0.089 0.503-0.162 0.766-0.221 0.277-0.074 0.576-0.133 0.897-0.177h9.671c0.278 0.044 0.533 0.103 0.766 0.177 0.248 0.059 0.46 0.132 0.635 0.221zm7.702 9.165c0.467-0.132 0.832-0.42 1.094-0.861h3.567l-0.263 0.861zm-8.468-0.861c0 0.441 0.197 0.729 0.591 0.861h-4.398l0.263-0.861zm0.088-0.508-0.022 0.066h-3.501l0.241-0.817h3.501zm9.649 0.066 0.022-0.066 0.219-0.751h3.501l-0.241 0.817zm-12.778-1.325 0.197-0.729h3.501l-0.197 0.729zm13.172 0 0.197-0.729h3.501l-0.197 0.729zm-12.822-1.303 0.197-0.685h3.501l-0.197 0.685zm13.172 0 0.197-0.685h3.501l-0.197 0.685zm-9.058-1.922c-0.044 0.089-0.088 0.184-0.132 0.288-0.029 0.088-0.058 0.184-0.087 0.287l-0.022 0.044h-3.501l0.175-0.619zm9.43 0.619 0.022-0.044c0.058-0.177 0.088-0.368 0.088-0.575h3.566l-0.175 0.619z"/>
<path d="m186.5 149.1c0.103 0.147 0.175 0.309 0.219 0.486h-16.323l0.153-0.486zm0.307 1.259c0.029 0.029 0.029 0.066 0 0.11s-0.029 0.081 0 0.11l-0.088 0.31h-4.07c-0.248-0.206-0.627-0.31-1.137-0.31h-7.856l-0.087 0.31h-3.523l0.131-0.53zm-16.039-2.076 0.131-0.398h13.173c0.277 0.044 0.532 0.103 0.766 0.177 0.247 0.059 0.459 0.132 0.634 0.221zm-3.348 11.793 0.285-0.994h3.523l-0.285 0.994zm13.173 0 0.284-0.994h3.501l-0.284 0.994zm-12.801-1.325 0.285-0.927h3.523l-0.285 0.927zm13.173 0 0.284-0.927h3.501l-0.284 0.927zm-12.801-1.303 0.263-0.861h3.523l-0.263 0.861zm13.173 0 0.262-0.861h3.501l-0.262 0.861zm-12.801-1.303 0.241-0.817h3.523l-0.241 0.817zm13.173 0 0.24-0.817h3.501l-0.241 0.817zm-12.779-1.325 0.197-0.729h3.523l-0.197 0.729zm13.172 0 0.197-0.729h3.501l-0.197 0.729zm-12.822-1.303 0.197-0.685h3.523l-0.197 0.685zm13.173 0 0.196-0.685h3.501l-0.197 0.685zm-12.801-1.303 0.175-0.619h3.523l-0.175 0.619zm13.172 0 0.022-0.044c0.059-0.177 0.088-0.368 0.088-0.575h3.566l-0.175 0.619z"/>
<path d="m191.61 160.08 0.985-0.994h10.547l0.197 0.994zm1.313-1.325 0.941-0.927h9.037l0.153 0.927zm4.355-8.172-0.241 0.31h-4.092l0.394-0.53h7.986l0.132 0.53h-4.114zm-11.488 9.497 0.766-0.994h4.114l-0.766 0.994zm1.028-1.325 0.744-0.927h4.114l-0.744 0.927zm11.86-1.303-0.153-0.861h4.113l0.154 0.861zm-10.853 0 0.7-0.861h4.092l-0.678 0.861zm6.105-7.862 0.394-0.486h6.739l0.087 0.486zm4.485 6.559-0.153-0.817h4.114l0.153 0.817zm-9.562 0 0.635-0.817h4.114l-0.657 0.817zm9.322-1.325-0.175-0.729h4.113l0.175 0.729zm-8.271 0 0.547-0.729h4.091l-0.547 0.729zm7.964-1.303-0.131-0.685h4.114l0.131 0.685zm-6.98 0 0.547-0.685h4.092l-0.547 0.685zm6.718-1.303-0.132-0.619h4.114l0.131 0.619zm-5.711 0 0.481-0.619h4.092l-0.481 0.619zm3.37-4.329h5.557l0.066 0.398h-5.952z"/>
<path d="m221.22 159.08c-0.569 0.442-1.284 0.773-2.144 0.994h-8.315l0.985-0.994zm1.072-1.258c-0.204 0.338-0.445 0.647-0.722 0.927h-9.496l0.941-0.927zm1.816-8.724c0.102 0.147 0.175 0.309 0.219 0.486h-16.323l0.153-0.486zm-1.269 4.991c0.131 0.221 0.219 0.464 0.263 0.729h-10.503l0.7-0.729zm0.853-1.259c-0.102 0.221-0.255 0.449-0.459 0.685h-9.365l0.678-0.685zm-3.128-1.943c-0.117-0.133-0.292-0.214-0.526-0.243-0.233-0.044-0.539-0.067-0.919-0.067h-7.855l-0.087 0.31h-3.523l0.131-0.53h16.63c0.029 0.029 0.029 0.066 0 0.11-0.03 0.044-0.03 0.081 0 0.11l-0.088 0.31zm-12.188-2.606 0.131-0.398h13.172c0.278 0.044 0.533 0.103 0.766 0.177 0.248 0.059 0.46 0.132 0.635 0.221zm14.682 7.067-0.241 0.795h-3.544c0-0.471-0.482-0.707-1.445-0.707h-5.842l0.088-0.11h10.984zm-18.03 4.726 0.285-0.994h3.522l-0.284 0.994zm0.372-1.325 0.285-0.927h3.522l-0.284 0.927zm12.975-1.303c0.394-0.103 0.671-0.39 0.832-0.861h3.501l-0.263 0.861zm-12.603 0 0.263-0.861h3.522l-0.262 0.861zm0.372-1.303 0.241-0.817h3.523l-0.241 0.817zm0.394-1.325 0.197-0.729h3.523l-0.197 0.729zm0.35-1.303 0.197-0.685h3.523l-0.197 0.685zm0.372-1.303 0.175-0.619h3.523l-0.175 0.619zm13.063 0c0.117-0.177 0.197-0.331 0.241-0.464l0.043-0.155h3.501l-0.175 0.619z"/>
<path d="m223.86 160.08 0.285-0.994h13.216l-0.985 0.994zm0.372-1.325 0.285-0.927h14.091l-0.919 0.927zm0.372-1.303 0.263-0.861h3.501l-0.263 0.861zm0.372-1.303 0.241-0.817h3.501l-0.241 0.817zm0.394-1.325 0.197-0.729h3.501l-0.197 0.729zm0.35-1.303 0.197-0.685h3.501l-0.197 0.685zm0.372-1.303 0.175-0.619h3.501l-0.175 0.619zm0.394-1.325 0.131-0.53h3.501l-0.131 0.53zm0.35-1.303 0.153-0.486h3.501l-0.153 0.486zm4.004-1.701-0.131 0.398h-3.501l0.131-0.398z"/>
<path d="m239.73 160.08 0.284-0.994h14.267l-0.985 0.994zm0.372-1.325 0.284-0.927h15.164l-0.941 0.927zm1.138-3.931 0.196-0.729h3.501l-0.109 0.376 0.372-0.376h10.612l-0.7 0.729zm1.466-5.234 0.153-0.486h15.338l-0.153 0.486zm3.041 3.931 0.7-0.685h10.612l-0.678 0.685zm-2.669-5.234 0.131-0.398h15.338l-0.131 0.398zm14.704 2.296h-11.838l-0.088 0.31h-3.501l0.132-0.53h15.338zm-3.326 4.881h-9.912l-0.197 0.685h-3.501l0.24-0.817h13.501zm-13.982 1.988 0.262-0.861h3.501l-0.262 0.861zm1.116-3.931 0.197-0.685h3.501l-0.197 0.685zm0.372-1.303 0.175-0.619h3.501l-0.175 0.619z"/>
<path d="m274.37 157.82c-0.204 0.338-0.445 0.647-0.722 0.927h-16.17l0.284-0.927zm-1.072 1.258c-0.569 0.442-1.284 0.773-2.144 0.994h-14.048l0.284-0.994zm1.663-4.991c0.102 0.265 0.16 0.508 0.175 0.729h-15.054c-0.336-0.206-0.569-0.449-0.7-0.729zm-1.86-1.259c0.627 0.147 1.101 0.376 1.422 0.685h-15.338c-0.015-0.089-0.022-0.184-0.022-0.287v-0.398zm-12.669-3.246c0.117-0.133 0.292-0.295 0.525-0.486h15.076l-0.503 0.486zm16.826-1.701-0.415 0.398h-14.42c0.248-0.089 0.503-0.162 0.766-0.221 0.277-0.074 0.576-0.133 0.897-0.177zm-2.691 2.694h-9.453c-0.714 0-1.232 0.104-1.553 0.31h-3.829l0.087-0.31c0-0.029 0.029-0.103 0.088-0.22h14.857zm0.569 4.749v0.022l-0.241 0.795h-3.545c0.015-0.501-0.466-0.751-1.444-0.751h-7.964l-0.438-0.066zm-4.858 2.12c0.248-0.074 0.445-0.169 0.591-0.287 0.161-0.133 0.299-0.324 0.416-0.574h3.501l-0.263 0.861zm-7.286-5.742c-0.058 0.191-0.066 0.361-0.022 0.508h-3.632l0.175-0.619h3.501z"/>
</g>
</svg>
